<?xml version="1.0" encoding="utf-8"?><svg xml:space="preserve" viewBox="0 0 100 100" y="0px" x="0px" xmlns:xlink="http://www.w3.org/1999/xlink" xmlns="http://www.w3.org/2000/svg" id="圖層_1" version="1.1" width="200px" height="200px" style="width:100%;height:100%;background-color:rgb(255, 255, 255);animation-play-state:paused" ><g class="ldl-scale" style="transform-origin:50% 50% 0px;transform:rotate(0deg) scale(0.8);animation-play-state:paused" ><g style="animation-play-state:paused" ><circle r="10.26" cy="12.76" cx="50" fill="#754C24" style="fill:rgb(117, 76, 36);animation-play-state:paused" ></circle>
<circle r="10.26" cy="17.75" cx="31.38" fill="#754C24" style="fill:rgb(117, 76, 36);animation-play-state:paused" ></circle>
<circle r="10.26" cy="31.38" cx="17.75" fill="#754C24" style="fill:rgb(117, 76, 36);animation-play-state:paused" ></circle>
<circle r="10.26" cy="50" cx="12.76" fill="#754C24" style="fill:rgb(117, 76, 36);animation-play-state:paused" ></circle>
<circle r="10.26" cy="68.62" cx="17.75" fill="#754C24" style="fill:rgb(117, 76, 36);animation-play-state:paused" ></circle>
<circle r="10.26" cy="82.25" cx="31.38" fill="#754C24" style="fill:rgb(117, 76, 36);animation-play-state:paused" ></circle>
<circle r="10.26" cy="87.24" cx="50" fill="#754C24" style="fill:rgb(117, 76, 36);animation-play-state:paused" ></circle>
<circle r="10.26" cy="82.25" cx="68.62" fill="#754C24" style="fill:rgb(117, 76, 36);animation-play-state:paused" ></circle>
<circle r="10.26" cy="68.62" cx="82.25" fill="#754C24" style="fill:rgb(117, 76, 36);animation-play-state:paused" ></circle>
<circle r="10.26" cy="50" cx="87.24" fill="#754C24" style="fill:rgb(117, 76, 36);animation-play-state:paused" ></circle>
<circle r="10.26" cy="31.38" cx="82.25" fill="#754C24" style="fill:rgb(117, 76, 36);animation-play-state:paused" ></circle>
<circle r="10.26" cy="17.75" cx="68.62" fill="#754C24" style="fill:rgb(117, 76, 36);animation-play-state:paused" ></circle>
<circle r="35.09" cy="50" cx="50" fill="#754C24" style="fill:rgb(117, 76, 36);animation-play-state:paused" ></circle></g>
<g style="animation-play-state:paused" ><circle r="9.46" cy="31.1" cx="35.93" fill="#FFE219" style="fill:rgb(255, 226, 25);animation-play-state:paused" ></circle>
<circle r="5.16" cy="31.1" cx="35.93" fill="#FFFFFF" style="fill:rgb(255, 255, 255);animation-play-state:paused" ></circle></g>
<g style="animation-play-state:paused" ><circle r="5.16" cy="31.1" cx="64.07" fill="#FFFFFF" style="fill:rgb(255, 255, 255);animation-play-state:paused" ></circle>
<circle r="9.46" cy="31.1" cx="64.07" fill="#FFE219" style="fill:rgb(255, 226, 25);animation-play-state:paused" ></circle>
<circle r="5.16" cy="31.1" cx="64.07" fill="#FFFFFF" style="fill:rgb(255, 255, 255);animation-play-state:paused" ></circle></g>
<path d="M60.67,78.04H39.33c-7.22,0-13.08-5.86-13.08-13.08V34.63c0-1.81,1.46-3.27,3.27-3.27h40.96 c1.81,0,3.27,1.46,3.27,3.27v30.33C73.75,72.18,67.89,78.04,60.67,78.04z" fill="#FFE219" style="fill:rgb(255, 226, 25);animation-play-state:paused" ></path>
<g style="animation-play-state:paused" ><ellipse ry="4.05" rx="3.68" cy="44.01" cx="37.91" style="animation-play-state:paused" ></ellipse>
<ellipse ry="4.05" rx="3.68" cy="44.01" cx="62.09" style="animation-play-state:paused" ></ellipse></g>
<g style="animation-play-state:paused" ><path d="M40,56c-1.44,1.13-2.38,2.89-2.38,4.86c0,3.41,2.77,6.18,6.18,6.18c3.41,0,6.18-2.77,6.18-6.18c0,3.41,2.77,6.18,6.18,6.18 c3.41,0,6.18-2.77,6.18-6.18c0-1.98-0.93-3.73-2.38-4.86" stroke-miterlimit="10" stroke-linejoin="round" stroke-linecap="round" stroke-width="3.5" stroke="#000000" fill="#F2F2F3" style="fill:rgb(242, 242, 243);animation-play-state:paused" ></path>
<line y2="60.25" x2="50" y1="54.49" x1="50" stroke-miterlimit="10" stroke-linecap="round" stroke-width="3.5" stroke="#000000" fill="none" style="animation-play-state:paused" ></line>
<ellipse ry="3.17" rx="3.98" cy="54.06" cx="50" style="animation-play-state:paused" ></ellipse></g>
<metadata xmlns:d="https://loading.io/stock/" style="animation-play-state:paused" ><d:name style="animation-play-state:paused" >animal</d:name>


<d:tags style="animation-play-state:paused" >animal,zoo,lion,feloidea,cute,cats</d:tags>


<d:license style="animation-play-state:paused" >by</d:license>


<d:slug style="animation-play-state:paused" >l3fhp6</d:slug></metadata></g><!-- generated by https://loading.io/ --></svg>