<?xml version="1.0" encoding="utf-8"?><svg xml:space="preserve" viewBox="0 0 100 100" y="0px" x="0px" xmlns:xlink="http://www.w3.org/1999/xlink" xmlns="http://www.w3.org/2000/svg" id="圖層_1" version="1.1" width="200px" height="200px" style="width:100%;height:100%;background-color:rgb(255, 255, 255);animation-play-state:paused" ><g class="ldl-scale" style="transform-origin:50% 50% 0px;transform:rotate(0deg) scale(0.8);animation-play-state:paused" ><g style="animation-play-state:paused" ><path d="M82.54,8.57c1.01-0.38,1.93,0.76,1.35,1.67c-1.66,2.6-3.48,6.14-4.61,10.59 c-1.15,4.53-1.21,8.48-1.02,11.27c-5.71-0.02-11.41-0.04-17.12-0.06c1.01-3.45,4.09-12.24,12.77-18.75 C76.94,11.01,79.96,9.54,82.54,8.57z" fill="#8E5D01" style="fill:rgb(142, 93, 1);animation-play-state:paused" ></path>
<path d="M17.41,8.57c-1.01-0.38-1.93,0.76-1.35,1.67c1.66,2.6,3.48,6.14,4.61,10.59c1.15,4.53,1.21,8.48,1.02,11.27 c5.71-0.02,11.41-0.04,17.12-0.06c-1.01-3.45-4.09-12.24-12.77-18.75C23.01,11.01,20,9.54,17.41,8.57z" fill="#8E5D01" style="fill:rgb(142, 93, 1);animation-play-state:paused" ></path></g>
<path d="M34.64,64.56 c6.27,9.08,8.09,4.04,13.22,0.66c1.26-0.83,3.09-0.95,4.27,0c4.22,3.38,6.95,8.42,13.22-0.66" stroke-miterlimit="10" stroke-linecap="round" stroke-width="3.5" stroke="#000000" fill="none" style="animation-play-state:paused" ></path>
<path d="M65.43,34v-0.82c0-1.09-0.88-1.97-1.97-1.97h-3.03c-1.09,0-1.97,0.88-1.97,1.97V34 c0,1.09,0.88,1.97,1.97,1.97h3.03C64.54,35.97,65.43,35.09,65.43,34z" fill="#FFFFFF" style="fill:rgb(255, 255, 255);animation-play-state:paused" ></path>
<path d="M34.57,34v-0.82c0-1.09,0.88-1.97,1.97-1.97h3.03c1.09,0,1.97,0.88,1.97,1.97V34c0,1.09-0.88,1.97-1.97,1.97 h-3.03C35.46,35.97,34.57,35.09,34.57,34z" fill="#FFFFFF" style="fill:rgb(255, 255, 255);animation-play-state:paused" ></path>
<path d="M55.53,53.41c0,3.05-2.48,5.53-5.53,5.53s-5.53-2.48-5.53-5.53s2.48-3.28,5.53-3.28S55.53,50.35,55.53,53.41z" style="animation-play-state:paused" ></path>
<ellipse ry="6.62" rx="4.46" cy="44.54" cx="34.73" style="animation-play-state:paused" ></ellipse>
<ellipse ry="6.62" rx="4.46" cy="44.54" cx="65.27" style="animation-play-state:paused" ></ellipse>
<g style="animation-play-state:paused" ><path d="M87.6,34.42c6.21-3.26,8.79-10.59,5.75-16.38l-22.49,11.8C73.89,35.63,81.39,37.68,87.6,34.42z" fill="#D2D2D3" style="fill:rgb(210, 210, 211);animation-play-state:paused" ></path>
<path d="M12.4,34.42c-6.21-3.26-8.79-10.59-5.75-16.38l22.49,11.8C26.11,35.63,18.61,37.68,12.4,34.42z" fill="#D2D2D3" style="fill:rgb(210, 210, 211);animation-play-state:paused" ></path>
<path d="M33.23,91.5h33.53c8.82,0,15.97-7.15,15.97-15.97V65.47c-9.1-7.68-19.9-12.32-32.74-12.32 s-23.64,4.64-32.74,12.32v10.06C17.26,84.35,24.41,91.5,33.23,91.5z" fill="#FFF7E9" style="fill:rgb(255, 247, 233);animation-play-state:paused" ></path>
<path d="M82.74,66V24.62H17.26V66c9.1-7.68,19.9-12.32,32.74-12.32S73.64,58.31,82.74,66z" fill="#D2D2D3" style="fill:rgb(210, 210, 211);animation-play-state:paused" ></path></g>
<g style="animation-play-state:paused" ><path d="M34.64,64.56 c6.27,9.08,8.09,4.04,13.22,0.66c1.26-0.83,3.09-0.95,4.27,0c4.22,3.38,6.95,8.42,13.22-0.66" stroke-miterlimit="10" stroke-linecap="round" stroke-width="3.5" stroke="#000000" fill="none" style="animation-play-state:paused" ></path>
<path d="M55.53,53.41c0,3.05-2.48,5.53-5.53,5.53s-5.53-2.48-5.53-5.53s2.48-3.28,5.53-3.28S55.53,50.35,55.53,53.41z" style="animation-play-state:paused" ></path></g>
<g style="animation-play-state:paused" ><path d="M34.57,34v-0.82c0-1.09,0.88-1.97,1.97-1.97h3.03c1.09,0,1.97,0.88,1.97,1.97V34 c0,1.09-0.88,1.97-1.97,1.97h-3.03C35.46,35.97,34.57,35.09,34.57,34z" fill="#FFFFFF" style="fill:rgb(255, 255, 255);animation-play-state:paused" ></path>
<ellipse ry="6.62" rx="4.46" cy="44.54" cx="34.73" style="animation-play-state:paused" ></ellipse></g>
<g style="animation-play-state:paused" ><path d="M65.43,34v-0.82c0-1.09-0.88-1.97-1.97-1.97h-3.03c-1.09,0-1.97,0.88-1.97,1.97V34 c0,1.09,0.88,1.97,1.97,1.97h3.03C64.54,35.97,65.43,35.09,65.43,34z" fill="#FFFFFF" style="fill:rgb(255, 255, 255);animation-play-state:paused" ></path>
<ellipse ry="6.62" rx="4.46" cy="44.54" cx="65.27" style="animation-play-state:paused" ></ellipse></g>
<metadata xmlns:d="https://loading.io/stock/" style="animation-play-state:paused" ><d:name style="animation-play-state:paused" >animal</d:name>


<d:tags style="animation-play-state:paused" >animal,goat,mountain,farm,zoo</d:tags>


<d:license style="animation-play-state:paused" >by</d:license>


<d:slug style="animation-play-state:paused" >luukm4</d:slug></metadata></g><!-- generated by https://loading.io/ --></svg>