<?xml version="1.0" encoding="utf-8"?><svg xml:space="preserve" viewBox="0 0 100 100" y="0px" x="0px" xmlns:xlink="http://www.w3.org/1999/xlink" xmlns="http://www.w3.org/2000/svg" id="圖層_1" version="1.1" width="200px" height="200px" style="width:100%;height:100%;background-color:rgb(255, 255, 255);animation-play-state:paused" ><g class="ldl-scale" style="transform-origin:50% 50% 0px;transform:rotate(0deg) scale(0.8);animation-play-state:paused" ><path d="M85,39.19c0-2.05-1.25-3.84-3.12-4.83c1.87-0.99,3.12-2.78,3.12-4.83c0-2.65-2.08-4.85-4.89-5.46 c0.3-0.81,0.59-1.65,0.84-2.52c2.27-7.84,1.42-14.79-1.91-15.53c-2.87-0.64-6.64,3.56-9.08,9.75c-1.11,0.63-1.98,1.54-2.48,2.62 c-0.96-2.07-3.27-3.53-5.97-3.53c-2.53,0-4.71,1.28-5.77,3.14c-1.05-1.86-3.24-3.14-5.77-3.14c-2.8,0-5.17,1.57-6.06,3.75 c-0.89-2.18-3.27-3.75-6.06-3.75c-2.32,0-4.35,1.08-5.48,2.69c-0.71-1.01-1.77-1.81-3.04-2.27c-2.44-5.92-6.08-9.89-8.88-9.27 c-3.33,0.74-4.18,7.7-1.91,15.53c0.18,0.64,0.39,1.25,0.6,1.86C16.72,24.22,15,26.27,15,28.67c0,2.05,1.25,3.84,3.12,4.83 C16.25,34.5,15,36.29,15,38.34c0,1.98,1.17,3.72,2.93,4.73C16.17,44.08,15,45.82,15,47.8c0,1.85,1.02,3.48,2.58,4.51 C16.02,53.35,15,54.98,15,56.83c0,2.14,1.36,4,3.36,4.96c-2,0.96-3.36,2.82-3.36,4.96c0,1.99,1.18,3.74,2.96,4.75 C16.18,72.51,15,74.26,15,76.25c0,3.12,2.89,5.65,6.45,5.65c0.45,0,0.89-0.04,1.32-0.12c0.02,0.03,0.05,0.06,0.07,0.09 c-1.57,1.03-2.59,2.67-2.59,4.52c0,3.12,2.89,5.65,6.45,5.65c2.32,0,4.35-1.08,5.48-2.69c1.14,1.61,3.16,2.69,5.48,2.69 c2.8,0,5.17-1.57,6.06-3.75c0.89,2.18,3.27,3.75,6.06,3.75c2.53,0,4.71-1.28,5.77-3.14c1.05,1.86,3.24,3.14,5.77,3.14 c2.7,0,5.01-1.46,5.97-3.53c0.96,2.07,3.27,3.53,5.97,3.53c3.56,0,6.45-2.53,6.45-5.65c0-1.66-0.82-3.14-2.11-4.18 c0.32,0.04,0.64,0.07,0.97,0.07c3.56,0,6.45-2.53,6.45-5.65c0-1.99-1.18-3.74-2.96-4.75c1.78-1.01,2.96-2.75,2.96-4.75 c0-1.98-1.17-3.72-2.93-4.73c1.76-1.01,2.93-2.75,2.93-4.73c0-1.85-1.02-3.48-2.58-4.51C83.98,52.14,85,50.5,85,48.66 c0-1.98-1.17-3.72-2.93-4.73C83.83,42.92,85,41.17,85,39.19z" fill="#D2D2D3" style="fill:rgb(210, 210, 211);animation-play-state:paused" ></path>
<g style="animation-play-state:paused" ><ellipse ry="5.56" rx="4.42" cy="32.5" cx="34.76" style="animation-play-state:paused" ></ellipse>
<ellipse ry="5.56" rx="4.42" cy="32.5" cx="65.05" style="animation-play-state:paused" ></ellipse></g>
<g style="animation-play-state:paused" ><ellipse ry="13.66" rx="16.18" cy="49.95" cx="50" fill="#FFFFFF" style="fill:rgb(255, 255, 255);animation-play-state:paused" ></ellipse>
<g style="animation-play-state:paused" ><path d="M40.45,51.08 c3.9,5.4,5.03,2.4,8.22,0.39c0.78-0.49,1.92-0.56,2.66,0c2.63,2.01,4.32,5.01,8.22-0.39" stroke-miterlimit="10" stroke-linecap="round" stroke-width="3.5" stroke="#000000" fill="#FFFFFF" style="fill:rgb(255, 255, 255);animation-play-state:paused" ></path>
<line y2="51.08" x2="50" y1="44.17" x1="50" stroke-miterlimit="10" stroke-linecap="round" stroke-width="3.5" stroke="#000000" fill="#FFFFFF" style="fill:rgb(255, 255, 255);animation-play-state:paused" ></line>
<ellipse ry="3.8" rx="4.78" cy="43.65" cx="50" style="animation-play-state:paused" ></ellipse></g></g>
<metadata xmlns:d="https://loading.io/stock/" style="animation-play-state:paused" ><d:name style="animation-play-state:paused" >animal</d:name>


<d:tags style="animation-play-state:paused" >animal,alpaca,cute,zoo,husbandry</d:tags>


<d:license style="animation-play-state:paused" >by</d:license>


<d:slug style="animation-play-state:paused" >pj03mu</d:slug></metadata></g><!-- generated by https://loading.io/ --></svg>