<?xml version="1.0" encoding="utf-8"?><svg xml:space="preserve" viewBox="0 0 100 100" y="0px" x="0px" xmlns:xlink="http://www.w3.org/1999/xlink" xmlns="http://www.w3.org/2000/svg" id="圖層_1" version="1.1" width="200px" height="200px" style="width:100%;height:100%;background-color:rgb(255, 255, 255);animation-play-state:paused" ><g class="ldl-scale" style="transform-origin:50% 50% 0px;transform:rotate(0deg) scale(0.8);animation-play-state:paused" ><g style="animation-play-state:paused" ><circle r="13.33" cy="20.83" cx="27.18" fill="#333435" style="fill:rgb(51, 52, 53);animation-play-state:paused" ></circle>
<circle r="13.33" cy="20.83" cx="72.82" fill="#333435" style="fill:rgb(51, 52, 53);animation-play-state:paused" ></circle></g>
<g style="animation-play-state:paused" ><path d="M26.4,20.83c-5.82,0-10.54,4.72-10.54,10.54v32.22v10.4c0,9.12,7.46,16.51,16.66,16.51h34.97 c9.2,0,16.66-7.39,16.66-16.51v-10.4V31.37c0-5.82-4.72-10.54-10.54-10.54H26.4z" fill="#F2F2F3" style="fill:rgb(242, 242, 243);animation-play-state:paused" ></path>
<path d="M81.2,83.35c1.85-2.66,2.94-5.88,2.94-9.36v-3.43c-0.96-0.55-2.07-0.86-3.24-0.86 c-3.48,0-6.95,0.52-10.25,1.62c-6.49,2.17-13.43,3.34-20.65,3.34s-14.16-1.18-20.65-3.34c-3.3-1.1-6.77-1.62-10.25-1.62 c-1.18,0-2.28,0.31-3.24,0.86v3.43c0,3.48,1.09,6.7,2.94,9.36C33.03,80.39,66.97,80.39,81.2,83.35z" fill="#333435" style="fill:rgb(51, 52, 53);animation-play-state:paused" ></path></g>
<g style="animation-play-state:paused" ><path d="M39.96,59.17 c4.1,5.68,5.29,2.52,8.64,0.41c0.82-0.52,2.02-0.59,2.79,0c2.76,2.11,4.54,5.26,8.64-0.41" stroke-miterlimit="10" stroke-linecap="round" stroke-width="3.5" stroke="#000000" fill="none" style="animation-play-state:paused" ></path>
<line y2="59.17" x2="50" y1="51.9" x1="50" stroke-miterlimit="10" stroke-linecap="round" stroke-width="3.5" stroke="#000000" fill="none" style="animation-play-state:paused" ></line>
<ellipse ry="4" rx="5.02" cy="51.36" cx="50" style="animation-play-state:paused" ></ellipse></g>
<g style="animation-play-state:paused" ><path d="M45.2,40.69c-0.6,5.65-5.28,12.46-12.47,12.47c-7.14,0.01-13.06-6.69-12.47-12.47 c0.51-5.03,5.8-7.89,7.83-8.99c1.72-0.93,8.63-4.67,13.49-1.16C45.85,33.63,45.28,39.99,45.2,40.69z" fill="#333435" style="fill:rgb(51, 52, 53);animation-play-state:paused" ></path>
<circle r="6.49" cy="38.78" cx="35.67" fill="#FFFFFF" style="fill:rgb(255, 255, 255);animation-play-state:paused" ></circle>
<circle r="4.1" cy="38.75" cx="35.67" style="animation-play-state:paused" ></circle></g>
<g style="animation-play-state:paused" ><path d="M54.8,40.69c0.6,5.65,5.28,12.46,12.47,12.47c7.14,0.01,13.06-6.69,12.47-12.47 c-0.51-5.03-5.8-7.89-7.83-8.99c-1.72-0.93-8.63-4.67-13.49-1.16C54.15,33.63,54.72,39.99,54.8,40.69z" fill="#333435" style="fill:rgb(51, 52, 53);animation-play-state:paused" ></path>
<circle r="6.49" cy="38.78" cx="64.33" fill="#FFFFFF" style="fill:rgb(255, 255, 255);animation-play-state:paused" ></circle>
<circle r="4.1" cy="38.75" cx="64.33" style="animation-play-state:paused" ></circle></g>
<metadata xmlns:d="https://loading.io/stock/" style="animation-play-state:paused" ><d:name style="animation-play-state:paused" >animal</d:name>


<d:tags style="animation-play-state:paused" >animal,bear,panda,cute,zoo</d:tags>


<d:license style="animation-play-state:paused" >by</d:license>


<d:slug style="animation-play-state:paused" >p7kkze</d:slug></metadata></g><!-- generated by https://loading.io/ --></svg>