<?xml version="1.0" encoding="utf-8"?><svg xml:space="preserve" viewBox="0 0 100 100" y="0px" x="0px" xmlns:xlink="http://www.w3.org/1999/xlink" xmlns="http://www.w3.org/2000/svg" id="圖層_1" version="1.1" width="200px" height="200px" style="width:100%;height:100%;background-color:rgb(255, 255, 255);animation-play-state:paused" ><g class="ldl-scale" style="transform-origin:50% 50% 0px;transform:rotate(0deg) scale(0.8);animation-play-state:paused" ><path d="M16,20.64v42.97v10.45c0,9.16,7.43,16.59,16.59,16.59h34.83c9.16,0,16.59-7.43,16.59-16.59V63.61V20.64H16z" fill="#849B87" style="fill:rgb(132, 155, 135);animation-play-state:paused" ></path>
<g style="animation-play-state:paused" ><circle r="13.28" cy="20.64" cx="70.72" fill="#849B87" style="fill:rgb(132, 155, 135);animation-play-state:paused" ></circle>
<circle r="7.24" cy="20.64" cx="70.72" fill="#FFFFFF" style="fill:rgb(255, 255, 255);animation-play-state:paused" ></circle>
<path d="M66.22,20.64c0,2.49,2.18,3.22,4.69,3.22s4.31-0.74,4.31-3.22s-1.8-3.22-4.31-3.22S66.22,18.15,66.22,20.64z" style="animation-play-state:paused" ></path></g>
<g style="animation-play-state:paused" ><circle r="13.28" cy="20.64" cx="29.28" fill="#849B87" style="fill:rgb(132, 155, 135);animation-play-state:paused" ></circle>
<circle r="7.24" cy="20.64" cx="29.28" fill="#FFFFFF" style="fill:rgb(255, 255, 255);animation-play-state:paused" ></circle>
<path d="M33.78,20.64c0,2.49-2.18,3.22-4.69,3.22s-4.31-0.74-4.31-3.22s1.8-3.22,4.31-3.22S33.78,18.15,33.78,20.64z" style="animation-play-state:paused" ></path></g>
<g style="animation-play-state:paused" ><path d="M23.62,38.85c0,0,19.87,2.64,25.12,5.21c0.75,0.37,1.65,0.37,2.38-0.03c5-2.74,24.98-5.18,24.98-5.18" stroke-miterlimit="10" stroke-linejoin="round" stroke-linecap="round" stroke-width="3.5" stroke="#44635E" fill="none" style="stroke:rgb(68, 99, 94);animation-play-state:paused" ></path>
<line y2="37" x2="46.67" y1="34.41" x1="46.67" stroke-miterlimit="10" stroke-linejoin="round" stroke-linecap="round" stroke-width="3.5" stroke="#44635E" fill="none" style="stroke:rgb(68, 99, 94);animation-play-state:paused" ></line>
<line y2="37" x2="53.33" y1="34.41" x1="53.33" stroke-miterlimit="10" stroke-linejoin="round" stroke-linecap="round" stroke-width="3.5" stroke="#44635E" fill="none" style="stroke:rgb(68, 99, 94);animation-play-state:paused" ></line></g>
<path d="M69.16,54.48c-5.83-2.84-12.37-4.44-19.29-4.44s-13.47,1.6-19.29,4.44c-4.62,2.25-9.53,3.83-14.57,4.61v4.52 v10.45c0,9.16,7.43,16.59,16.59,16.59h34.83c9.16,0,16.59-7.43,16.59-16.59V63.61v-4.47C78.86,58.37,73.86,56.78,69.16,54.48z" fill="#D8E2BC" style="fill:rgb(216, 226, 188);animation-play-state:paused" ></path>
<g style="animation-play-state:paused" ><path d="M69.22,32.48c0,1.93,1.7,2.51,3.65,2.51c1.95,0,3.35-0.57,3.35-2.51s-1.4-2.51-3.35-2.51 C70.92,29.98,69.22,30.55,69.22,32.48z" fill="#689991" style="fill:rgb(104, 153, 145);animation-play-state:paused" ></path>
<path d="M30.78,32.48c0,1.93-1.7,2.51-3.65,2.51s-3.35-0.57-3.35-2.51s1.4-2.51,3.35-2.51S30.78,30.55,30.78,32.48z" fill="#689991" style="fill:rgb(104, 153, 145);animation-play-state:paused" ></path></g>
<metadata xmlns:d="https://loading.io/stock/" style="animation-play-state:paused" ><d:name style="animation-play-state:paused" >animal</d:name>


<d:tags style="animation-play-state:paused" >animal,frog,amphibian,cute,insectarium</d:tags>


<d:license style="animation-play-state:paused" >by</d:license>


<d:slug style="animation-play-state:paused" >o6nuih</d:slug></metadata></g><!-- generated by https://loading.io/ --></svg>